<svg width="96" height="39" fill="none" xmlns="http://www.w3.org/2000/svg"><path d="M93.245 38.727c.306-.068.647-.204 1.09-.374v-1.465c-.409.204-.716.307-.954.409a2.545 2.545 0 0 1-.681.102c-.307 0-.545-.068-.716-.239-.136-.17-.204-.408-.204-.783v-3.61h2.555v-1.33H91.78v-2.146l-1.737.375v1.772h-1.397v1.328h1.397v3.68c0 1.6.749 2.418 2.248 2.418.375 0 .681-.034.954-.136Zm-8.04-.68.716-.546.102 1.227h1.499v-7.256h-1.738v4.769l-1.022.681c-.238.17-.442.307-.613.375-.17.068-.374.102-.579.102-.51 0-.75-.307-.75-.92v-5.007h-1.736v5.11c0 .783.17 1.362.51 1.737.341.408.852.579 1.5.579.68 0 1.396-.273 2.111-.852ZM72.67 36.444c-.477-.613-.715-1.533-.715-2.76 0-1.26.239-2.18.715-2.758.477-.614 1.193-.92 2.112-.92.954 0 1.67.306 2.112.92.477.613.716 1.532.716 2.759 0 1.26-.239 2.18-.715 2.76-.477.612-1.193.919-2.113.919-.953 0-1.635-.307-2.112-.92Zm5.621 1.158c.818-.885 1.226-2.214 1.226-3.917 0-1.703-.408-3.032-1.226-3.918-.817-.92-1.976-1.362-3.509-1.362-1.498 0-2.657.443-3.474 1.362-.818.92-1.227 2.215-1.227 3.918 0 1.703.41 2.998 1.227 3.917.817.886 1.976 1.363 3.474 1.363 1.533-.034 2.692-.477 3.51-1.363Zm-13.047.682c.511-.41.784-.988.784-1.704 0-.613-.17-1.09-.511-1.43-.34-.341-.92-.58-1.67-.716l-.92-.17c-.408-.068-.68-.17-.85-.307-.137-.102-.24-.306-.24-.545 0-.545.444-.817 1.33-.817.238 0 .51.034.749.068.238.034.51.102.817.204.307.102.682.239 1.09.443v-1.43c-.408-.17-.783-.307-1.09-.375-.306-.102-.579-.137-.817-.17-.239-.035-.511-.035-.818-.035-.92 0-1.635.205-2.146.614-.51.408-.75.953-.75 1.635 0 .613.171 1.056.546 1.396.34.34.92.58 1.703.716l.852.17c.442.068.715.17.851.306.136.103.205.307.205.546 0 .613-.443.92-1.329.92-.273 0-.51-.035-.783-.069s-.546-.136-.886-.238c-.307-.102-.715-.273-1.192-.443v1.499c.442.17.851.272 1.158.374.306.103.613.137.886.205.272.034.579.068.885.068.92-.102 1.635-.307 2.146-.715Zm-8.72.443v-4.293l1.124-.851c.204-.17.443-.273.715-.341.239-.068.58-.102 1.022-.102V31.3c-.306 0-.545.034-.75.068-.204.035-.408.137-.647.307-.204.17-.477.409-.817.75l-.681.715-.17-1.67h-1.5v7.256h1.704Zm-8.244-2.078c0-.41.136-.682.409-.886.272-.205.715-.273 1.294-.273h1.295v.954l-.92.647c-.239.17-.443.307-.613.375-.17.068-.375.102-.58.102-.613-.034-.885-.34-.885-.92Zm1.43 2.043c.341-.136.682-.34 1.057-.613l.613-.477.102 1.09h1.465v-4.837c0-1.737-.92-2.623-2.725-2.623-.341 0-.648.034-.954.068a3.555 3.555 0 0 0-.954.239c-.34.102-.715.272-1.158.443v1.464c.443-.204.851-.374 1.158-.477.34-.102.613-.204.886-.238.272-.034.51-.068.783-.068.852 0 1.26.375 1.26 1.158v.58h-1.396c-2.214 0-3.304.783-3.304 2.35 0 .681.17 1.226.545 1.6.374.376.885.58 1.533.58.408-.034.749-.102 1.09-.239Zm-6.404-5.654c.273.272.41.75.443 1.362h-3.44c.136-1.192.75-1.805 1.84-1.805.51 0 .885.17 1.157.443Zm-.272 5.79c.272-.033.579-.102.92-.204.34-.102.715-.238 1.158-.408v-1.465c-.477.204-.852.34-1.192.443-.341.102-.614.17-.886.238a5.586 5.586 0 0 1-.784.068c-1.192 0-1.84-.647-1.975-1.907h5.041c.034-.069.034-.17.034-.307v-.34c0-1.193-.272-2.113-.817-2.726-.545-.613-1.329-.92-2.35-.92-1.125 0-2.01.341-2.658.988-.647.681-.954 1.601-.954 2.794 0 1.26.307 2.18.92 2.861.613.647 1.465.988 2.623.988.34-.034.647-.034.92-.102Zm-7.529-.102V34.81a30.026 30.026 0 0 0 1.942-2.861c.613-1.022 1.227-2.113 1.772-3.305h-2.01a24.739 24.739 0 0 1-1.227 2.521 37.01 37.01 0 0 1-1.396 2.282c-.477-.749-.954-1.499-1.363-2.316a28.79 28.79 0 0 1-1.226-2.52h-2.044a43.245 43.245 0 0 0 1.805 3.338 31.414 31.414 0 0 0 1.908 2.827v3.917h1.84v.035ZM24.74 33.04c.273.272.409.75.477 1.362h-3.44c.136-1.192.749-1.805 1.839-1.805.477 0 .852.17 1.124.443Zm-.272 5.79c.272-.033.579-.102.92-.204.34-.102.715-.238 1.157-.408v-1.465c-.477.204-.851.34-1.192.443-.34.102-.613.17-.886.238a5.587 5.587 0 0 1-.783.068c-1.192 0-1.84-.647-1.976-1.907h5.042c.034-.069.034-.17.034-.307v-.34c0-1.193-.273-2.113-.818-2.726-.545-.613-1.328-.92-2.35-.92-1.124 0-2.01.341-2.657.988-.647.681-.954 1.601-.954 2.794 0 1.26.307 2.18.92 2.861.613.647 1.465.988 2.623.988.34-.034.647-.034.92-.102Zm-7.938-.102a33.833 33.833 0 0 0 1.567-3.338c.477-1.192.988-2.487 1.431-3.917h-1.805c-.613 2.18-1.295 4.121-2.078 5.893-.41-.886-.75-1.806-1.124-2.793-.341-.988-.682-2.01-.954-3.1h-1.908c.477 1.464.954 2.759 1.465 3.951a42.94 42.94 0 0 0 1.567 3.304h1.84Zm-5.927-7.29H8.866v7.256h1.737v-7.255Zm.17-2.248c0-.681-.34-1.022-1.056-1.022-.68 0-1.056.341-1.056 1.022 0 .682.341 1.022 1.056 1.022.716 0 1.056-.34 1.056-1.022Zm-8.175 9.538v-4.19h4.496v-1.532H2.598v-2.828H7.4V28.61H.826v10.083h1.772v.035ZM62.62 16.756H51.106l-3.883-7.154v-7.63c0-.92-.75-1.67-1.67-1.67H37.14c-.92 0-1.67.75-1.67 1.67v14.784h-1.6l-3.884-7.154v-7.63c0-.92-.75-1.67-1.67-1.67h-8.38c-.919 0-1.668.75-1.668 1.67v14.784H15.61l-3.68-15.16A1.679 1.679 0 0 0 10.298.303H5.731c-.784 0-1.465.545-1.635 1.295L.043 18.39c-.204.885.34 1.805 1.226 2.01.137.034.273.034.409.034.75 0 1.43-.511 1.635-1.295l3.713-15.5h1.942l3.645 15.194c.17.749.851 1.294 1.635 1.294h5.655c.92 0 1.669-.75 1.669-1.67V3.642h5.042v6.404c0 .272.068.545.204.817l4.565 8.38c.306.545.851.886 1.464.886h4.293c.92 0 1.669-.75 1.669-1.67V3.642h5.041v6.404c0 .272.069.545.205.817l4.565 8.38c.306.545.851.886 1.464.886h14.171c.92 0 1.67-.75 1.67-1.67V7.014c0-.92-.75-1.67-1.67-1.67-.92 0-1.669.75-1.669 1.67v9.743h.034Zm32.498-14.75C95.288 1.085 94.71.2 93.79.03c-.92-.17-1.806.408-1.976 1.328L88.816 16.79h-.886L85.001 1.665C84.831.88 84.149.302 83.366.302h-3.202a1.65 1.65 0 0 0-1.635 1.363l-2.93 15.125h-.886l-2.93-15.125C71.648.88 70.934.302 70.15.302h-16.01c-.92 0-1.67.75-1.67 1.67v11.445c0 .92.75 1.67 1.67 1.67.919 0 1.668-.75 1.668-1.67V3.641h12.945l2.93 15.124c.17.784.851 1.363 1.635 1.363h3.645a1.65 1.65 0 0 0 1.635-1.363l2.93-15.124h.442l2.93 15.124c.136.784.851 1.363 1.635 1.363h3.645a1.65 1.65 0 0 0 1.635-1.363l3.304-16.76Z" fill="#fff"/></svg>
