<svg width="715" height="830" viewBox="0 0 715 830" fill="none" xmlns="http://www.w3.org/2000/svg">
<rect width="666" height="664" rx="13" fill="white"/>
<path d="M587.672 827.2V715.2H623.672C632.632 715.2 639.992 716.694 645.752 719.68C651.512 722.667 655.779 726.72 658.552 731.84C661.325 736.854 662.712 742.56 662.712 748.96C662.712 755.254 661.325 760.96 658.552 766.08C655.779 771.2 651.512 775.254 645.752 778.24C640.099 781.227 632.739 782.72 623.672 782.72H601.112V827.2H587.672ZM601.112 771.36H623.512C632.899 771.36 639.459 769.334 643.192 765.28C647.032 761.12 648.952 755.68 648.952 748.96C648.952 741.92 647.032 736.427 643.192 732.48C639.459 728.427 632.899 726.4 623.512 726.4H601.112V771.36Z" fill="white"/>
<path d="M458.844 827.2V715.2H474.524L512.604 794.08L550.364 715.2H566.204V827.2H552.764V739.36L517.564 812.48H507.484L472.284 740V827.2H458.844Z" fill="white"/>
<path d="M348.281 827.2L389.561 715.2H403.801L444.921 827.2H430.521L396.601 732L362.361 827.2H348.281ZM367.161 798.4L371.001 787.52H421.721L425.561 798.4H367.161Z" fill="white"/>
<path d="M263.211 827.2V715.2H299.371C308.118 715.2 315.264 716.694 320.811 719.68C326.358 722.56 330.464 726.454 333.131 731.36C335.798 736.267 337.131 741.814 337.131 748C337.131 753.974 335.744 759.467 332.971 764.48C330.304 769.494 326.144 773.494 320.491 776.48C314.838 779.467 307.584 780.96 298.731 780.96H276.651V827.2H263.211ZM322.411 827.2L297.771 777.12H312.811L338.251 827.2H322.411ZM276.651 770.4H298.411C306.944 770.4 313.184 768.32 317.131 764.16C321.184 760 323.211 754.667 323.211 748.16C323.211 741.547 321.238 736.32 317.291 732.48C313.451 728.534 307.104 726.56 298.251 726.56H276.651V770.4Z" fill="white"/>
<path d="M200.799 829.12C193.332 829.12 186.719 827.2 180.959 823.36C175.199 819.52 170.719 814.293 167.519 807.68C164.319 800.96 162.719 793.387 162.719 784.96C162.719 776.427 164.319 768.907 167.519 762.4C170.719 755.787 175.199 750.613 180.959 746.88C186.719 743.04 193.385 741.12 200.959 741.12C207.572 741.12 213.225 742.453 217.919 745.12C222.719 747.787 226.505 751.52 229.279 756.32V712H242.719V827.2H230.559L229.439 813.76C227.839 816.427 225.705 818.933 223.039 821.28C220.479 823.627 217.332 825.547 213.599 827.04C209.972 828.427 205.705 829.12 200.799 829.12ZM202.559 817.44C207.892 817.44 212.532 816.16 216.479 813.6C220.425 810.933 223.465 807.2 225.599 802.4C227.732 797.493 228.799 791.733 228.799 785.12C228.799 778.507 227.732 772.8 225.599 768C223.465 763.093 220.425 759.36 216.479 756.8C212.532 754.133 207.892 752.8 202.559 752.8C197.545 752.8 193.065 754.133 189.119 756.8C185.172 759.36 182.079 763.093 179.839 768C177.599 772.8 176.479 778.507 176.479 785.12C176.479 791.733 177.599 797.493 179.839 802.4C182.079 807.2 185.172 810.933 189.119 813.6C193.065 816.16 197.545 817.44 202.559 817.44Z" fill="white"/>
<path d="M113.529 829.12C106.062 829.12 99.4491 827.307 93.6891 823.68C87.9291 820.053 83.3957 814.933 80.0891 808.32C76.8891 801.707 75.2891 793.973 75.2891 785.12C75.2891 776.267 76.8891 768.533 80.0891 761.92C83.3957 755.307 87.9291 750.187 93.6891 746.56C99.5557 742.933 106.276 741.12 113.849 741.12C121.956 741.12 128.729 742.933 134.169 746.56C139.609 750.187 143.716 755.04 146.489 761.12C149.262 767.2 150.649 773.867 150.649 781.12C150.649 782.187 150.649 783.253 150.649 784.32C150.649 785.387 150.596 786.667 150.489 788.16H85.3691V777.76H137.529C137.316 769.547 134.916 763.307 130.329 759.04C125.849 754.667 120.249 752.48 113.529 752.48C109.049 752.48 104.889 753.6 101.049 755.84C97.3157 757.973 94.2757 761.173 91.9291 765.44C89.5824 769.707 88.4091 775.04 88.4091 781.44V785.92C88.4091 792.96 89.5824 798.88 91.9291 803.68C94.2757 808.373 97.3157 811.893 101.049 814.24C104.889 816.587 109.049 817.76 113.529 817.76C119.502 817.76 124.196 816.64 127.609 814.4C131.022 812.053 133.529 808.747 135.129 804.48H148.409C147.129 809.173 144.889 813.387 141.689 817.12C138.596 820.853 134.649 823.787 129.849 825.92C125.156 828.053 119.716 829.12 113.529 829.12Z" fill="white"/>
<path d="M0 827.2V715.2H68.16V726.24H13.44V765.6H60V776.48H13.44V827.2H0Z" fill="white"/>
<circle cx="692.719" cy="732" r="20" stroke="white" stroke-width="3.27869"/>
<path d="M684.527 743.558V718.349H693.062C695.055 718.349 696.687 718.685 697.96 719.358C699.232 720.03 700.168 720.93 700.769 722.059C701.393 723.163 701.705 724.423 701.705 725.84C701.705 727.184 701.393 728.433 700.769 729.585C700.168 730.713 699.22 731.626 697.924 732.322C696.627 732.994 694.971 733.33 692.954 733.33H688.128V743.558H684.527ZM697.78 743.558L692.342 732.358H696.303L701.957 743.558H697.78ZM688.128 730.593H692.81C694.587 730.593 695.895 730.161 696.735 729.297C697.576 728.409 697.996 727.28 697.996 725.912C697.996 724.519 697.588 723.415 696.771 722.599C695.955 721.782 694.635 721.374 692.81 721.374H688.128V730.593Z" fill="white"/>
<path d="M76.6797 518.5H161.68V387.5H267.68V302.5H161.68V230.5H470.18C486.18 230.5 515.18 236 515.18 270C515.18 295.5 485.18 304.167 470.18 302.5H332.68C316.111 302.5 302.68 315.931 302.68 332.5V518.5H386.18V387.5H433.68L503.18 518.5H595.18C561.18 452 545.18 421 521.68 374.5C583.379 347.7 596.388 293.667 595.18 270V256C595.18 195.249 545.931 146 485.18 146H116.68C94.5883 146 76.6797 163.909 76.6797 186V518.5Z" fill="url(#paint0_linear_1622_2588)"/>
<defs>
<linearGradient id="paint0_linear_1622_2588" x1="335.967" y1="146" x2="335.967" y2="518.5" gradientUnits="userSpaceOnUse">
<stop stop-color="#491C3D"/>
<stop offset="1" stop-color="#1B1120"/>
</linearGradient>
</defs>
</svg>
